<?xml version="1.0" encoding="UTF-8"?>
<svg xmlns="http://www.w3.org/2000/svg" xmlns:xlink="http://www.w3.org/1999/xlink" width="px" height="px" viewBox="0 0 693 200" version="1.1">
<g id="surface1">
<path style=" stroke:none;fill-rule:nonzero;fill:rgb(56.862745%,77.254902%,97.647059%);fill-opacity:1;" d="M 328.398438 199.996094 L 328.160156 199.457031 L 244.585938 8.753906 L 276.539062 8.753906 L 276.605469 8.902344 L 327.644531 128.453125 L 375.328125 8.753906 L 406.785156 8.753906 L 406.644531 9.097656 Z M 245.351562 9.253906 L 328.382812 198.714844 L 406.039062 9.253906 L 375.667969 9.253906 L 327.664062 129.765625 L 327.425781 129.207031 L 276.210938 9.253906 Z M 601.714844 191.5 L 558.28125 191.5 L 558.28125 8.753906 L 601.714844 8.753906 C 605.414062 8.753906 609.042969 8.894531 612.5 9.175781 C 616.011719 9.460938 619.457031 9.898438 622.734375 10.476562 C 626 11.046875 629.234375 11.789062 632.421875 12.699219 C 635.523438 13.589844 638.574219 14.65625 641.554688 15.894531 C 647.214844 18.054688 652.59375 20.890625 657.582031 24.332031 C 662.457031 27.710938 666.910156 31.664062 670.84375 36.101562 C 685.332031 52.078125 692.992188 74.21875 692.992188 100.125 C 692.992188 126.03125 685.332031 148.175781 670.84375 164.152344 C 666.90625 168.589844 662.457031 172.539062 657.582031 175.921875 C 652.59375 179.363281 647.210938 182.199219 641.550781 184.359375 C 635.46875 186.753906 629.167969 188.535156 622.734375 189.683594 C 615.796875 190.914062 608.761719 191.519531 601.714844 191.5 Z M 558.78125 191 L 601.714844 191 C 608.730469 191.019531 615.738281 190.414062 622.648438 189.191406 C 629.046875 188.046875 635.316406 186.273438 641.367188 183.894531 L 641.371094 183.894531 C 652.550781 179.660156 662.535156 172.769531 670.472656 163.820312 C 684.875 147.9375 692.488281 125.910156 692.488281 100.128906 C 692.488281 74.347656 684.875 52.324219 670.472656 36.4375 C 662.535156 27.488281 652.550781 20.601562 641.371094 16.367188 L 641.363281 16.363281 C 638.402344 15.132812 635.367188 14.070312 632.28125 13.1875 C 629.113281 12.28125 625.894531 11.542969 622.648438 10.976562 C 619.386719 10.402344 615.957031 9.964844 612.457031 9.679688 C 609.015625 9.402344 605.402344 9.257812 601.714844 9.257812 L 558.78125 9.257812 Z M 533.636719 191.5 L 501.929688 191.5 L 501.867188 191.34375 L 486.472656 152.449219 L 422.039062 152.449219 L 406.582031 191.5 L 374.632812 191.5 L 374.773438 191.152344 L 454.257812 0 Z M 502.269531 191 L 532.886719 191 L 454.253906 1.304688 L 375.382812 191 L 406.242188 191 L 421.699219 151.945312 L 486.8125 151.945312 L 486.875 152.105469 Z M 275.277344 191.5 L 243.570312 191.5 L 243.507812 191.34375 L 228.113281 152.449219 L 163.683594 152.449219 L 148.222656 191.5 L 116.273438 191.5 L 116.417969 191.152344 L 195.898438 0 L 196.128906 0.558594 Z M 243.914062 191 L 274.527344 191 L 195.898438 1.304688 L 117.023438 191 L 147.882812 191 L 163.339844 151.945312 L 228.457031 151.945312 L 228.519531 152.105469 Z M 52.121094 191.5 C 48.425781 191.503906 44.738281 191.1875 41.097656 190.542969 C 37.453125 189.902344 33.882812 188.898438 30.4375 187.554688 C 27.546875 186.382812 24.738281 185.023438 22.03125 183.476562 C 19.300781 181.914062 16.679688 180.167969 14.183594 178.246094 C 11.613281 176.265625 9.179688 174.117188 6.890625 171.816406 C 4.492188 169.398438 2.242188 166.832031 0.152344 164.140625 L 0 163.941406 L 0.195312 163.789062 L 22.96875 145.949219 L 23.125 146.152344 C 25.527344 149.40625 28.335938 152.34375 31.484375 154.886719 C 34.320312 157.183594 37.507812 159.015625 40.921875 160.3125 L 40.929688 160.316406 C 42.632812 161.011719 44.402344 161.542969 46.207031 161.902344 C 47.980469 162.25 49.785156 162.425781 51.59375 162.425781 C 53.566406 162.429688 55.535156 162.210938 57.464844 161.777344 L 57.472656 161.777344 C 66.609375 160.089844 74.222656 154.042969 76.417969 146.722656 C 78.320312 140.25 75.535156 133.390625 68.140625 126.34375 C 60.066406 118.75 46.972656 105.886719 45.8125 104.730469 L 23.484375 83.605469 C 16.652344 77.011719 11.925781 69.621094 9.4375 61.640625 C 8.207031 57.855469 7.535156 53.914062 7.433594 49.9375 C 7.328125 46.039062 7.835938 42.148438 8.945312 38.40625 C 10.0625 34.464844 11.789062 30.722656 14.066406 27.316406 C 16.4375 23.800781 19.28125 20.632812 22.515625 17.902344 C 25.636719 15.28125 29.078125 13.074219 32.753906 11.328125 C 36.476562 9.550781 40.414062 8.273438 44.464844 7.53125 C 47.75 6.804688 51.105469 6.4375 54.46875 6.441406 C 60.308594 6.460938 66.105469 7.496094 71.589844 9.503906 L 71.597656 9.507812 C 81.039062 13.238281 89.410156 19.460938 96.480469 28.003906 L 96.640625 28.199219 L 73.921875 46.445312 L 73.765625 46.253906 C 70.527344 42.328125 66.976562 39.449219 63.210938 37.695312 C 60.351562 36.34375 57.226562 35.640625 54.066406 35.632812 C 52.6875 35.636719 51.3125 35.765625 49.960938 36.027344 C 43.574219 37.253906 38.328125 41.429688 36.902344 46.410156 C 36.308594 48.585938 36.382812 50.886719 37.117188 53.019531 C 38.113281 56.117188 40.332031 59.347656 43.707031 62.617188 L 74.132812 91.847656 C 79.441406 97.160156 85.5 102.886719 87.867188 105.101562 C 91.632812 108.484375 94.972656 112.316406 97.8125 116.507812 C 100.421875 120.375 102.464844 124.59375 103.882812 129.039062 C 106.636719 137.355469 106.808594 146.3125 104.375 154.730469 C 103.070312 159.175781 101.113281 163.402344 98.5625 167.269531 C 95.984375 171.1875 92.878906 174.738281 89.332031 177.8125 C 81.882812 184.253906 72.875 188.632812 63.210938 190.511719 C 59.554688 191.207031 55.839844 191.539062 52.121094 191.5 Z M 0.703125 164.03125 C 2.734375 166.636719 4.917969 169.117188 7.246094 171.460938 C 9.515625 173.746094 11.9375 175.882812 14.488281 177.847656 C 16.964844 179.753906 19.570312 181.488281 22.28125 183.042969 C 24.96875 184.578125 27.753906 185.929688 30.625 187.089844 C 34.039062 188.421875 37.574219 189.414062 41.183594 190.050781 C 44.796875 190.6875 48.453125 191.003906 52.121094 191 C 55.808594 191.039062 59.488281 190.710938 63.113281 190.023438 C 82.746094 186.140625 98.753906 172.226562 103.894531 154.582031 C 106.296875 146.261719 106.128906 137.410156 103.40625 129.1875 C 102.003906 124.785156 99.980469 120.609375 97.394531 116.785156 C 94.578125 112.625 91.265625 108.824219 87.53125 105.46875 L 87.527344 105.46875 C 85.164062 103.25 79.097656 97.519531 73.78125 92.199219 L 43.363281 62.976562 C 39.925781 59.648438 37.664062 56.347656 36.640625 53.171875 C 35.878906 50.945312 35.800781 48.539062 36.425781 46.269531 C 37.285156 43.519531 38.988281 41.113281 41.292969 39.386719 C 42.511719 38.429688 43.84375 37.625 45.257812 36.992188 C 46.730469 36.328125 48.277344 35.835938 49.867188 35.53125 C 51.25 35.265625 52.65625 35.132812 54.066406 35.128906 C 57.300781 35.136719 60.496094 35.855469 63.421875 37.234375 C 67.191406 38.992188 70.75 41.855469 73.992188 45.742188 L 95.929688 28.125 C 88.949219 19.75 80.703125 13.644531 71.417969 9.976562 C 65.988281 7.988281 60.25 6.960938 54.46875 6.941406 C 51.140625 6.941406 47.820312 7.300781 44.570312 8.019531 L 44.5625 8.019531 C 40.550781 8.757812 36.652344 10.019531 32.96875 11.777344 C 29.332031 13.503906 25.925781 15.691406 22.839844 18.28125 C 19.640625 20.984375 16.828125 24.117188 14.484375 27.59375 C 12.234375 30.953125 10.527344 34.648438 9.425781 38.542969 L 9.425781 38.546875 C 8.335938 42.234375 7.832031 46.074219 7.933594 49.921875 C 8.035156 53.851562 8.703125 57.746094 9.917969 61.484375 C 12.382812 69.386719 17.066406 76.707031 23.835938 83.242188 L 46.167969 104.367188 C 47.304688 105.503906 60.410156 118.375 68.492188 125.976562 C 69.863281 127.273438 71.148438 128.65625 72.335938 130.121094 C 73.585938 131.652344 74.667969 133.3125 75.566406 135.070312 C 76.46875 136.835938 77.078125 138.738281 77.367188 140.699219 C 77.648438 142.761719 77.492188 144.863281 76.902344 146.859375 C 76.316406 148.769531 75.417969 150.570312 74.246094 152.183594 C 73.019531 153.890625 71.558594 155.417969 69.910156 156.722656 C 68.167969 158.105469 66.261719 159.269531 64.234375 160.179688 C 62.105469 161.144531 59.867188 161.84375 57.570312 162.265625 C 55.605469 162.707031 53.601562 162.929688 51.589844 162.929688 C 49.75 162.925781 47.914062 162.746094 46.109375 162.390625 C 44.273438 162.027344 42.476562 161.488281 40.742188 160.78125 C 37.28125 159.464844 34.050781 157.609375 31.167969 155.277344 C 28.054688 152.761719 25.269531 149.863281 22.875 146.65625 Z M 601.714844 163.007812 L 586.742188 163.007812 L 586.742188 37.246094 L 601.714844 37.246094 C 606.703125 37.222656 611.683594 37.59375 616.613281 38.355469 C 621.039062 39.042969 625.382812 40.167969 629.589844 41.710938 C 633.476562 43.152344 637.183594 45.039062 640.636719 47.339844 C 643.988281 49.589844 647.046875 52.25 649.746094 55.257812 C 654.539062 60.550781 658.242188 67.078125 660.746094 74.65625 C 663.257812 82.261719 664.53125 90.828125 664.53125 100.125 C 664.53125 109.328125 663.257812 117.867188 660.746094 125.503906 C 658.226562 133.160156 654.523438 139.71875 649.742188 144.996094 C 647.03125 147.957031 643.972656 150.582031 640.632812 152.8125 C 637.179688 155.105469 633.472656 156.996094 629.589844 158.449219 C 625.386719 160.011719 621.039062 161.152344 616.613281 161.859375 C 611.6875 162.644531 606.703125 163.027344 601.714844 163.007812 Z M 587.242188 162.507812 L 601.714844 162.507812 C 622.492188 162.507812 638.527344 156.503906 649.375 144.660156 C 654.105469 139.4375 657.773438 132.9375 660.269531 125.347656 C 662.765625 117.753906 664.027344 109.277344 664.027344 100.125 C 664.027344 81.574219 658.960938 66.175781 649.371094 55.59375 C 646.703125 52.617188 643.675781 49.984375 640.355469 47.753906 C 636.9375 45.476562 633.265625 43.605469 629.414062 42.179688 C 625.242188 40.648438 620.925781 39.535156 616.535156 38.851562 C 611.628906 38.09375 606.675781 37.722656 601.710938 37.746094 L 587.242188 37.746094 Z M 476.707031 126.902344 L 431.804688 126.902344 L 454.257812 70.464844 Z M 432.542969 126.402344 L 475.96875 126.402344 L 454.257812 71.820312 Z M 218.347656 126.902344 L 173.449219 126.902344 L 173.582031 126.558594 L 195.898438 70.464844 Z M 174.183594 126.402344 L 217.609375 126.402344 L 195.898438 71.820312 Z M 174.183594 126.402344 "/>
</g>
</svg>
